# Blender v3.1.2 OBJ File: 'dice.blend'
# www.blender.org
mtllib dice.mtl
o Solid.002
v 0.850651 0.000000 -0.525731
v -0.850651 0.000000 -0.525731
v 0.850651 0.000000 0.525731
v -0.850651 0.000000 0.525731
v 0.525731 0.850651 0.000000
v 0.525731 -0.850651 0.000000
v -0.525731 0.850651 0.000000
v -0.525731 -0.850651 0.000000
v 0.000000 0.525731 -0.850651
v 0.000000 0.525731 0.850651
v 0.000000 -0.525731 -0.850651
v 0.000000 -0.525731 0.850651
vt 0.179808 0.801152
vt 0.287108 0.608132
vt 0.300634 0.902266
vt 0.185638 0.318082
vt 0.052306 0.354846
vt 0.132313 0.091502
vt 0.378126 0.316103
vt 0.243035 0.316103
vt 0.341882 0.079507
vt 0.412284 0.330450
vt 0.378694 0.092853
vt 0.533163 0.233947
vt 0.642955 0.153809
vt 0.707922 0.343318
vt 0.530735 0.318437
vt 0.256845 0.560741
vt 0.136469 0.397831
vt 0.300136 0.355995
vt 0.318247 0.786780
vt 0.426675 0.604581
vt 0.439075 0.887893
vt 0.159965 0.089739
vt 0.293212 0.052196
vt 0.213807 0.316005
vt 0.775721 0.369637
vt 0.697026 0.158961
vt 0.829072 0.130798
vt 0.673113 0.726088
vt 0.757931 0.908640
vt 0.627274 0.950196
vt 0.627945 0.736062
vt 0.601028 0.972585
vt 0.494553 0.844497
vt 0.594131 0.695538
vt 0.464224 0.832104
vt 0.448960 0.620367
vt 0.072309 0.413909
vt 0.182699 0.553298
vt 0.025487 0.645962
vt 0.962999 0.329881
vt 0.818443 0.373088
vt 0.893634 0.136067
vt 0.841491 0.644542
vt 0.690947 0.615060
vt 0.839313 0.399528
vt 0.771923 0.844422
vt 0.688679 0.685680
vt 0.847692 0.682736
vt 0.046087 0.744808
vt 0.172310 0.637294
vt 0.160926 0.912339
vt 0.594187 0.394683
vt 0.760184 0.404895
vt 0.626867 0.635939
vt 0.448144 0.570964
vt 0.548083 0.378106
vt 0.599927 0.664278
vt 0.309037 0.463331
vt 0.460446 0.477510
vt 0.324828 0.701162
vn 0.5774 0.5774 -0.5774
vn 0.5774 -0.5774 -0.5774
vn 0.5774 0.5774 0.5774
vn 0.5774 -0.5774 0.5774
vn -0.5774 0.5774 -0.5774
vn -0.5774 -0.5774 -0.5774
vn -0.5774 0.5774 0.5774
vn -0.5774 -0.5774 0.5774
vn 0.3568 0.0000 -0.9342
vn -0.3568 0.0000 -0.9342
vn 0.3568 0.0000 0.9342
vn -0.3568 0.0000 0.9342
vn 0.9342 0.3568 0.0000
vn 0.9342 -0.3568 0.0000
vn -0.9342 0.3568 0.0000
vn -0.9342 -0.3568 0.0000
vn 0.0000 0.9342 -0.3568
vn 0.0000 0.9342 0.3568
vn 0.0000 -0.9342 -0.3568
vn 0.0000 -0.9342 0.3568
usemtl Материал
s off
f 1/1/1 9/2/1 5/3/1
f 1/4/2 6/5/2 11/6/2
f 3/7/3 5/8/3 10/9/3
f 3/10/4 12/11/4 6/12/4
f 2/13/5 7/14/5 9/15/5
f 2/16/6 11/17/6 8/18/6
f 4/19/7 10/20/7 7/21/7
f 4/22/8 8/23/8 12/24/8
f 1/25/9 11/26/9 9/27/9
f 2/28/10 9/29/10 11/30/10
f 3/31/11 10/32/11 12/33/11
f 4/34/12 12/35/12 10/36/12
f 5/37/13 3/38/13 1/39/13
f 6/40/14 1/41/14 3/42/14
f 7/43/15 2/44/15 4/45/15
f 8/46/16 4/47/16 2/48/16
f 9/49/17 7/50/17 5/51/17
f 10/52/18 5/53/18 7/54/18
f 11/55/19 6/56/19 8/57/19
f 12/58/20 8/59/20 6/60/20
